<svg xmlns="http://www.w3.org/2000/svg" viewBox="0 0 48 48"><defs><style>.cls-1{fill:#bfbfbf;}.cls-2{fill:#424242;}.cls-3{fill:#fc6459;}</style></defs><title>Wireframe</title><g id="Wireframe"><circle class="cls-1" cx="5" cy="5" r="1"/><circle class="cls-1" cx="9" cy="5" r="1"/><circle class="cls-1" cx="13" cy="5" r="1"/><path class="cls-2" d="M44,0H4A4,4,0,0,0,0,4V44a4,4,0,0,0,4,4H44a4,4,0,0,0,4-4V4A4,4,0,0,0,44,0ZM4,2H44a2,2,0,0,1,2,2V8H2V4A2,2,0,0,1,4,2ZM44,46H4a2,2,0,0,1-2-2V10H46V44A2,2,0,0,1,44,46Z"/><path class="cls-1" d="M43,6H27a1,1,0,0,1,0-2H43a1,1,0,0,1,0,2Z"/><rect class="cls-1" x="5" y="13" width="18" height="22"/><path class="cls-1" d="M43,28H27a1,1,0,0,1,0-2H43a1,1,0,0,1,0,2Z"/><path class="cls-1" d="M43,32H27a1,1,0,0,1,0-2H43a1,1,0,0,1,0,2Z"/><path class="cls-1" d="M37,36H27a1,1,0,0,1,0-2H37a1,1,0,0,1,0,2Z"/><rect class="cls-3" x="4" y="38" width="40" height="6" rx="1"/><path class="cls-2" d="M44,13l0-.27c0-.1-.1-.25-.1-.26s-.16-.18-.22-.23a1.26,1.26,0,0,0-.32-.18L43,12c-15.33,0-15.8,0-16.11,0a.94.94,0,0,0-.66.37c-.31.39-.23-.57-.23,10.61,0,0,0,.17.05.27s.1.25.1.26A1.06,1.06,0,0,0,27,24H43a1,1,0,0,0,.73-.33C44.12,23.24,44,23.45,44,13ZM28,14.8,33.11,18,28,21.2Zm2.49-.8h9L35,16.82ZM35,19.18,39.51,22h-9ZM36.89,18,42,14.8v6.4Z"/><path class="cls-2" d="M24,13a1.7,1.7,0,0,0-.05-.25.6.6,0,0,0-.15-.32c-.2-.27-.18-.2-.28-.26a.62.62,0,0,0-.39-.14c-.26,0-17.9,0-18.26,0a.76.76,0,0,0-.39.13s-.08,0-.11.07a1.92,1.92,0,0,0-.27.34C4,12.87,4,12,4,35a1.7,1.7,0,0,0,0,.25.6.6,0,0,0,.15.32,1.66,1.66,0,0,0,.17.2l.27.16A1.15,1.15,0,0,0,5,36c19,0,18.22.11,18.63-.23a1.92,1.92,0,0,0,.27-.34C24,35.13,24,36,24,13ZM12.71,24,6,32.2V15.8ZM7.11,14H20.89L14,22.42ZM14,25.58,20.89,34H7.11ZM15.29,24,22,15.8V32.2Z"/></g></svg>